<?xml version="1.0" encoding="utf-8"?>
<svg xmlns="http://www.w3.org/2000/svg" viewBox="0 0 36 36" width="36px" height="36px">
  <g transform="matrix(0.115191, 0, 0, 0.115191, -0.660136, -2.160923)">
    <path d="M -161.99 -300.9 L -61.99 -100.9 L -261.99 -100.9 L -161.99 -300.9 Z" style="fill-rule: nonzero; paint-order: fill; stroke-width: 25px; fill: rgba(0, 0, 0, 0); transform-box: fill-box; transform-origin: 50% 50%; stroke: rgb(58, 190, 249);" transform="matrix(-1, 0, 0, -1, 323.979988, 401.799988)"/>
    <polygon style="transform-box: fill-box; transform-origin: 50% 50%; fill: rgb(53, 114, 239);" points="15.393 74.62 105.393 74.62 115.393 84.62 32.693 84.62 74.093 156.22 60.393 152.52" transform="matrix(0.999391, 0.034899, -0.034899, 0.999391, 0, 0)"/>
    <polygon style="transform-box: fill-box; transform-origin: 50% 50%; fill: rgb(53, 114, 239);" points="208.593 156.22 298.593 156.22 308.593 146.22 225.893 146.22 267.293 74.62 253.593 78.32" transform="matrix(-0.999391, 0.034899, -0.034899, -0.999391, 0.000013, 0.000025)"/>
    <polygon style="transform-box: fill-box; transform-origin: 50% 50%; fill: rgb(53, 114, 239);" points="104.246 24.596 17.646 74.596 37.646 74.596 95.546 40.996" transform="matrix(0.999391, 0.034899, -0.034899, 0.999391, 0, -0.000001)"/>
    <polygon style="transform-origin: 263.146px 49.596px; fill: rgb(53, 114, 239);" points="306.446 74.596 219.846 24.596 239.846 24.596 297.746 58.196" transform="matrix(-0.999391, 0.034899, -0.034899, -0.999391, -0.000045, -0.000004)"/>
  </g>
  <path d="M -129.775 -137.5 L -370.225 -137.5 L -250 -377.951 Z M -329.775 -162.5 L -170.225 -162.5 L -250 -322.049 Z" style="fill: rgb(178, 178, 178);" transform="matrix(-1, 0, 0, -1, 500.0000149011612, 500.0000149011612)"/>
</svg>
